# xmcd CD database file
# Copyright (C) 1993-2000  Ti Kan
#
# Track frame offsets:
#	182
#	13485
#	27882
#	40837
#	54162
#	68392
#	80635
#	92715
#	106282
#	117775
#	130862
#	152222
#	175242
#	194332
#	211360
#	230871
#	249200
#	268976
#	289045
#	307715
#
# Disc length: 4370 seconds
#
# Revision: 1
# Processed by: cddbd v1.4b41PL1 Copyright (c) Steve Scherf et al.
# Submitted via: xmcd 2.6 PL0
#
DISCID=10111014
DTITLE=Mezz Mezzrow - 1947
DYEAR=1900
DGENRE=
TTITLE0=Breathless Blues
TTITLE1=Really The Blues - Part 1
TTITLE2=Really The Blues - Part 2
TTITLE3=Evil Gal Blues
TTITLE4=Fat Mama Blues
TTITLE5=You Got To Give It To Me
TTITLE6=Hey Daddy Blues
TTITLE7=Whoop This Wolf Away From My Door
TTITLE8=You can't Do That To Me
TTITLE9=Groovin' The Minor
TTITLE10=Where Am I?
TTITLE11=Tommy's Blues
TTITLE12=Chicago Function (Revolutionary Blues) - Part 1
TTITLE13=Chicago Function (Revolutionary Blues) - Part 2
TTITLE14=I Want SOme
TTITLE15=I'm Speaking My Mind
TTITLE16=Never Will I Forget The Blues
TTITLE17=The Blues And Freud - Part 1
TTITLE18=The Blues And Freud - Part 2
TTITLE19=Kaiser's Last Break
EXTD=Series: Chronogical Classics Vol 1095\nAll titles as "Mezzrow-Bec
EXTD=ht Quintet"
EXTT0=
EXTT1=
EXTT2=
EXTT3=
EXTT4=
EXTT5=
EXTT6=
EXTT7=
EXTT8=
EXTT9=
EXTT10=
EXTT11=
EXTT12=
EXTT13=
EXTT14=
EXTT15=
EXTT16=
EXTT17=
EXTT18=
EXTT19=
PLAYORDER=
